<svg width="110" height="83" viewBox="0 0 110 83" fill="none" xmlns="http://www.w3.org/2000/svg">
<g opacity="0.7">
<g opacity="0.7">
<path opacity="0.7" d="M112.803 8.60351C111.765 9.6415 110.088 9.6415 109.05 8.60351C108.012 7.56551 108.012 5.88873 109.05 4.85073C110.088 3.81274 111.765 3.81274 112.803 4.85073C113.841 5.88873 113.841 7.56551 112.803 8.60351Z" fill="#E9E9E9"/>
<path opacity="0.7" d="M104.179 17.3067C103.141 18.3447 101.464 18.3447 100.426 17.3067C99.3884 16.2687 99.3884 14.5919 100.426 13.5539C101.464 12.5159 103.141 12.5159 104.179 13.5539C105.217 14.5121 105.217 16.1888 104.179 17.3067Z" fill="#E9E9E9"/>
<path opacity="0.7" d="M95.5557 25.93C94.5177 26.968 92.841 26.968 91.803 25.93C90.765 24.892 90.765 23.2153 91.803 22.1773C92.841 21.1393 94.5177 21.1393 95.5557 22.1773C96.5937 23.1354 96.5937 24.8122 95.5557 25.93Z" fill="#E9E9E9"/>
<path opacity="0.7" d="M106.495 36.7892C105.457 37.8272 103.78 37.8272 102.742 36.7892C101.704 35.7512 101.704 34.0745 102.742 33.0365C103.78 31.9985 105.457 31.9985 106.495 33.0365C107.533 34.0745 107.533 35.7512 106.495 36.7892Z" fill="#E9E9E9"/>
<path opacity="0.7" d="M86.9324 34.5536C85.8944 35.5916 84.2177 35.5916 83.1797 34.5536C82.1417 33.5156 82.1417 31.8388 83.1797 30.8008C84.2177 29.7628 85.8944 29.7628 86.9324 30.8008C87.9704 31.7589 87.9704 33.5156 86.9324 34.5536Z" fill="#E9E9E9"/>
<path opacity="0.7" d="M97.8713 45.4126C96.8333 46.4506 95.1565 46.4506 94.1185 45.4126C93.0805 44.3746 93.0805 42.6978 94.1185 41.6598C95.1565 40.6218 96.8333 40.6218 97.8713 41.6598C98.9093 42.6978 98.9093 44.3746 97.8713 45.4126Z" fill="#E9E9E9"/>
<path opacity="0.7" d="M108.73 56.3514C107.692 57.3894 106.016 57.3894 104.978 56.3514C103.94 55.3134 103.94 53.6367 104.978 52.5987C106.016 51.5607 107.692 51.5607 108.73 52.5987C109.768 53.5568 109.768 55.3134 108.73 56.3514Z" fill="#E9E9E9"/>
<path opacity="0.7" d="M78.309 43.1769C77.271 44.2149 75.5942 44.2149 74.5562 43.1769C73.5182 42.1389 73.5182 40.4622 74.5562 39.4242C75.5942 38.3862 77.271 38.3862 78.309 39.4242C79.347 40.3823 79.347 42.1389 78.309 43.1769Z" fill="#E9E9E9"/>
<path opacity="0.7" d="M89.248 54.0358C88.21 55.0738 86.5332 55.0738 85.4952 54.0358C84.4572 52.9978 84.4572 51.321 85.4952 50.283C86.5332 49.245 88.21 49.245 89.248 50.283C90.286 51.321 90.286 52.9978 89.248 54.0358Z" fill="#E9E9E9"/>
<path opacity="0.7" d="M100.107 64.975C99.069 66.013 97.3922 66.013 96.3542 64.975C95.3162 63.937 95.3162 62.2602 96.3542 61.2222C97.3922 60.1842 99.069 60.1842 100.107 61.2222C101.145 62.1803 101.145 63.937 100.107 64.975Z" fill="#E9E9E9"/>
<path opacity="0.7" d="M69.6857 51.8003C68.6477 52.8383 66.9709 52.8383 65.9329 51.8003C64.8949 50.7623 64.8949 49.0855 65.9329 48.0475C66.9709 47.0095 68.6477 47.0095 69.6857 48.0475C70.7237 49.0057 70.7237 50.7623 69.6857 51.8003Z" fill="#E9E9E9"/>
<path opacity="0.7" d="M80.6245 62.6592C79.5865 63.6972 77.9098 63.6972 76.8718 62.6592C75.8338 61.6212 75.8338 59.9444 76.8718 58.9064C77.9098 57.8684 79.5865 57.8684 80.6245 58.9064C81.6625 59.9444 81.6625 61.6212 80.6245 62.6592Z" fill="#E9E9E9"/>
<path opacity="0.7" d="M91.4836 73.5982C90.4456 74.6362 88.7688 74.6362 87.7308 73.5982C86.6928 72.5602 86.6928 70.8834 87.7308 69.8454C88.7688 68.8074 90.4456 68.8074 91.4836 69.8454C92.5216 70.8834 92.5216 72.5602 91.4836 73.5982Z" fill="#E9E9E9"/>
<path opacity="0.7" d="M61.0623 60.4235C60.0243 61.4615 58.3476 61.4615 57.3096 60.4235C56.2716 59.3855 56.2716 57.7087 57.3096 56.6707C58.3476 55.6327 60.0243 55.6327 61.0623 56.6707C62.1003 57.7087 62.1003 59.3855 61.0623 60.4235Z" fill="#E9E9E9"/>
<path opacity="0.7" d="M71.9214 71.2827C70.8834 72.3207 69.2066 72.3207 68.1686 71.2827C67.1306 70.2447 67.1306 68.5679 68.1686 67.5299C69.2066 66.4919 70.8834 66.4919 71.9214 67.5299C72.9594 68.5679 73.0392 70.2447 71.9214 71.2827Z" fill="#E9E9E9"/>
<path opacity="0.7" d="M82.8603 82.2215C81.8223 83.2595 80.1455 83.2595 79.1075 82.2215C78.0695 81.1835 78.0695 79.5068 79.1075 78.4688C80.1455 77.4308 81.8223 77.4308 82.8603 78.4688C83.8983 79.5068 83.8983 81.1835 82.8603 82.2215Z" fill="#E9E9E9"/>
</g>
<g opacity="0.7">
<path opacity="0.7" d="M56.3513 4.53126C55.3133 5.56926 53.6366 5.56926 52.5986 4.53126C51.5606 3.49326 51.5606 1.8165 52.5986 0.778499C53.6366 -0.2595 55.3133 -0.2595 56.3513 0.778499C57.3893 1.8165 57.3893 3.49326 56.3513 4.53126Z" fill="#E9E9E9"/>
<path opacity="0.7" d="M67.2104 15.4701C66.1724 16.5081 64.4956 16.5081 63.4576 15.4701C62.4196 14.4321 62.4196 12.7553 63.4576 11.7173C64.4956 10.6793 66.1724 10.6793 67.2104 11.7173C68.2484 12.6755 68.2484 14.3523 67.2104 15.4701Z" fill="#E9E9E9"/>
<path opacity="0.7" d="M78.1492 26.3293C77.1112 27.3673 75.4345 27.3673 74.3965 26.3293C73.3585 25.2913 73.3585 23.6145 74.3965 22.5765C75.4345 21.5385 77.1112 21.5385 78.1492 22.5765C79.1872 23.6145 79.1872 25.2913 78.1492 26.3293Z" fill="#E9E9E9"/>
<path opacity="0.7" d="M47.728 13.1546C46.69 14.1926 45.0132 14.1926 43.9752 13.1546C42.9372 12.1166 42.9372 10.4398 43.9752 9.40185C45.0132 8.36385 46.69 8.36385 47.728 9.40185C48.766 10.4398 48.766 12.1166 47.728 13.1546Z" fill="#E9E9E9"/>
<path opacity="0.7" d="M58.587 24.0936C57.549 25.1316 55.8723 25.1316 54.8343 24.0936C53.7963 23.0556 53.7963 21.3789 54.8343 20.3409C55.8723 19.3029 57.549 19.3029 58.587 20.3409C59.625 21.299 59.625 23.0556 58.587 24.0936Z" fill="#E9E9E9"/>
<path opacity="0.7" d="M69.5259 34.9527C68.4879 35.9907 66.8112 35.9907 65.7732 34.9527C64.7352 33.9147 64.7352 32.2379 65.7732 31.1999C66.8112 30.1619 68.4879 30.1619 69.5259 31.1999C70.5639 32.2379 70.5639 33.9147 69.5259 34.9527Z" fill="#E9E9E9"/>
<path opacity="0.7" d="M39.1046 21.7782C38.0666 22.8162 36.3898 22.8162 35.3518 21.7782C34.3138 20.7402 34.3138 19.0634 35.3518 18.0254C36.3898 16.9874 38.0666 16.9874 39.1046 18.0254C40.1426 19.0634 40.1426 20.7402 39.1046 21.7782Z" fill="#E9E9E9"/>
<path opacity="0.7" d="M49.9636 32.717C48.9256 33.755 47.2489 33.755 46.2109 32.717C45.1729 31.679 45.1729 30.0022 46.2109 28.9642C47.2489 27.9262 48.9256 27.9262 49.9636 28.9642C51.0016 29.9224 51.0016 31.679 49.9636 32.717Z" fill="#E9E9E9"/>
<path opacity="0.7" d="M60.9026 43.5759C59.8646 44.6139 58.1878 44.6139 57.1498 43.5759C56.1118 42.5379 56.1118 40.8611 57.1498 39.8231C58.1878 38.7851 59.8646 38.7851 60.9026 39.8231C61.9406 40.8611 61.9406 42.5379 60.9026 43.5759Z" fill="#E9E9E9"/>
<path opacity="0.7" d="M30.4014 30.4013C29.3634 31.4393 27.6866 31.4393 26.6486 30.4013C25.6106 29.3633 25.6106 27.6866 26.6486 26.6486C27.6866 25.6106 29.3634 25.6106 30.4014 26.6486C31.5192 27.6866 31.5192 29.3633 30.4014 30.4013Z" fill="#E9E9E9"/>
<path opacity="0.7" d="M41.3403 41.3404C40.3023 42.3784 38.6255 42.3784 37.5875 41.3404C36.5495 40.3024 36.5495 38.6256 37.5875 37.5876C38.6255 36.5496 40.3023 36.5496 41.3403 37.5876C42.3783 38.5457 42.3783 40.3024 41.3403 41.3404Z" fill="#E9E9E9"/>
<path opacity="0.7" d="M52.2792 52.1993C51.2412 53.2373 49.5644 53.2373 48.5264 52.1993C47.4884 51.1613 47.4884 49.4845 48.5264 48.4465C49.5644 47.4085 51.2412 47.4085 52.2792 48.4465C53.3172 49.4845 53.3172 51.1613 52.2792 52.1993Z" fill="#E9E9E9"/>
<path opacity="0.7" d="M21.778 39.0247C20.74 40.0627 19.0632 40.0627 18.0252 39.0247C16.9872 37.9867 16.9872 36.31 18.0252 35.272C19.0632 34.234 20.74 34.234 21.778 35.272C22.816 36.31 22.816 37.9867 21.778 39.0247Z" fill="#E9E9E9"/>
<path opacity="0.7" d="M32.717 49.9636C31.679 51.0016 30.0022 51.0016 28.9642 49.9636C27.9262 48.9256 27.9262 47.2488 28.9642 46.2108C30.0022 45.1728 31.679 45.1728 32.717 46.2108C33.755 47.2488 33.755 48.9256 32.717 49.9636Z" fill="#E9E9E9"/>
<path opacity="0.7" d="M43.576 60.8228C42.538 61.8608 40.8612 61.8608 39.8232 60.8228C38.7852 59.7848 38.7852 58.108 39.8232 57.07C40.8612 56.032 42.538 56.032 43.576 57.07C44.6938 58.108 44.6938 59.7848 43.576 60.8228Z" fill="#E9E9E9"/>
<path opacity="0.7" d="M13.1547 47.6481C12.1167 48.6861 10.4399 48.6861 9.40194 47.6481C8.36394 46.6101 8.36394 44.9333 9.40194 43.8953C10.4399 42.8573 12.1167 42.8573 13.1547 43.8953C14.1927 44.9333 14.1927 46.6101 13.1547 47.6481Z" fill="#E9E9E9"/>
<path opacity="0.7" d="M24.0935 58.5869C23.0555 59.6249 21.3788 59.6249 20.3408 58.5869C19.3028 57.549 19.3028 55.8722 20.3408 54.8342C21.3788 53.7962 23.0555 53.7962 24.0935 54.8342C25.1315 55.8722 25.1315 57.549 24.0935 58.5869Z" fill="#E9E9E9"/>
<path opacity="0.7" d="M34.9526 69.4461C33.9146 70.4841 32.2378 70.4841 31.1998 69.4461C30.1618 68.4081 30.1618 66.7314 31.1998 65.6934C32.2378 64.6554 33.9146 64.6554 34.9526 65.6934C35.9906 66.7314 36.0704 68.4081 34.9526 69.4461Z" fill="#E9E9E9"/>
<path opacity="0.7" d="M4.53126 56.2714C3.49326 57.3094 1.8165 57.3094 0.778498 56.2714C-0.259499 55.2335 -0.259499 53.5567 0.778498 52.5187C1.8165 51.4807 3.49326 51.4807 4.53126 52.5187C5.56926 53.5567 5.56926 55.2335 4.53126 56.2714Z" fill="#E9E9E9"/>
<path opacity="0.7" d="M15.4701 67.2105C14.4321 68.2485 12.7553 68.2485 11.7173 67.2105C10.6793 66.1725 10.6793 64.4957 11.7173 63.4577C12.7553 62.4197 14.4321 62.4197 15.4701 63.4577C16.5081 64.4957 16.5081 66.1725 15.4701 67.2105Z" fill="#E9E9E9"/>
<path opacity="0.7" d="M26.3293 78.1493C25.2913 79.1873 23.6145 79.1873 22.5765 78.1493C21.5385 77.1113 21.5385 75.4345 22.5765 74.3965C23.6145 73.3585 25.2913 73.3585 26.3293 74.3965C27.3673 75.3547 27.3673 77.0315 26.3293 78.1493Z" fill="#E9E9E9"/>
</g>
</g>
</svg>
