<svg width="37" height="28" viewBox="0 0 37 28" fill="none" xmlns="http://www.w3.org/2000/svg">
<path d="M18.2002 17.2139C18.2895 17.0901 18.3689 16.9766 18.4483 16.8631C19.2188 15.7763 20.1018 14.8063 21.1998 14.0669C22.2085 13.3858 23.3097 12.9628 24.5036 12.808C26.1605 12.5913 27.7611 12.8734 29.3419 13.3687C30.721 13.7986 32.0372 14.3936 33.3402 15.023C33.3898 15.0471 33.4394 15.0677 33.5221 15.109C33.4923 14.9611 33.4725 14.8407 33.446 14.7238C33.1186 13.2345 32.7912 11.7452 32.4572 10.2594C32.4407 10.1906 32.3811 10.1046 32.3183 10.0737C30.764 9.317 29.1468 8.77357 27.4469 8.50874C26.2729 8.32645 25.1022 8.30237 23.9315 8.56377C21.9803 9.00402 20.5549 10.1665 19.5892 11.9654C19.4768 12.1752 19.3743 12.3919 19.2751 12.6085C19.0535 13.0797 18.6963 13.3446 18.1903 13.3411C17.6843 13.3411 17.3272 13.0694 17.1122 12.5982C16.6724 11.6214 16.0969 10.7512 15.3032 10.0462C14.3607 9.20694 13.2594 8.72886 12.0457 8.53281C10.2962 8.24734 8.58978 8.5053 6.90315 8.99026C5.73905 9.32732 4.61463 9.77101 3.53321 10.3351C2.81887 10.7065 2.03839 10.3798 1.82343 9.62655C1.75729 9.39611 1.75729 9.16567 1.82012 8.93179C2.35257 6.90596 2.89163 4.88358 3.42077 2.85775C3.53321 2.43126 3.76801 2.13891 4.14833 1.93599C5.54062 1.20339 6.98252 0.625564 8.51372 0.302258C10.9378 -0.206778 13.3189 -0.0863982 15.6372 0.873203C16.4805 1.22059 17.2709 1.67115 17.9919 2.24554C18.0415 2.28337 18.0878 2.3212 18.1374 2.35904C18.1473 2.36592 18.1573 2.36592 18.144 2.36248C18.5739 2.06325 18.9741 1.7537 19.404 1.48886C20.6078 0.745944 21.9174 0.312576 23.3031 0.119968C25.5553 -0.19302 27.7413 0.119968 29.8677 0.900718C30.7177 1.21371 31.5378 1.6058 32.358 1.99446C32.9698 2.28681 33.1881 3.03317 32.8838 3.64194C32.5862 4.24384 31.8884 4.46741 31.2964 4.15786C29.9405 3.45278 28.5317 2.90591 27.0368 2.63419C25.0526 2.26961 23.1047 2.37623 21.2263 3.20514C20.5318 3.51125 19.8869 3.90678 19.3974 4.52244C19.328 4.60842 19.2717 4.70817 19.2122 4.80447C18.7823 5.4958 17.8232 5.59554 17.347 4.95581C16.7848 4.20257 16.0539 3.70729 15.2404 3.3152C14.3078 2.86807 13.3223 2.61699 12.3037 2.50693C10.2169 2.28681 8.24584 2.72362 6.34095 3.5594C6.11937 3.6557 5.89779 3.75888 5.67952 3.87239C5.6233 3.8999 5.56377 3.96525 5.54724 4.02716C5.27275 5.04523 5.00487 6.06674 4.737 7.08825C4.73369 7.09857 4.7403 7.10889 4.74361 7.1364C4.7833 7.12609 4.82298 7.11921 4.86267 7.10545C6.0863 6.66176 7.32977 6.3075 8.61624 6.11489C10.2731 5.86726 11.92 5.85694 13.5504 6.31782C15.2205 6.78902 16.6161 7.70735 17.7339 9.08312C17.8894 9.27573 18.0382 9.47178 18.2036 9.68502C18.2565 9.61279 18.3061 9.55432 18.3524 9.49241C19.7447 7.60073 21.5801 6.48635 23.8289 6.0977C25.046 5.88789 26.263 5.89477 27.4833 6.05986C29.6991 6.35909 31.7859 7.08137 33.7933 8.09257C34.2662 8.32989 34.5374 8.68415 34.6531 9.22414C35.212 11.8209 35.7908 14.4108 36.3596 17.0041C36.472 17.5097 36.353 17.9534 35.9528 18.2802C35.5527 18.6035 35.1161 18.6207 34.663 18.3971C33.6048 17.8743 32.5498 17.3378 31.4816 16.839C30.3175 16.2922 29.117 15.8416 27.8603 15.5699C26.6003 15.2982 25.337 15.2328 24.0836 15.5905C22.8302 15.9448 21.7951 16.6671 20.9187 17.6507C20.2573 18.3902 19.7281 19.226 19.2684 20.1099C19.0403 20.5502 18.7062 20.8081 18.2168 20.8116C17.7207 20.815 17.3702 20.5708 17.142 20.1203C16.6393 19.14 16.0506 18.2251 15.2966 17.4306C14.235 16.3162 12.9783 15.6112 11.4703 15.4048C10.197 15.2294 8.95687 15.422 7.72993 15.7694C6.2715 16.1855 4.89243 16.8184 3.5299 17.4994C2.90816 17.809 2.29635 18.1323 1.67461 18.4384C1.08264 18.7273 0.394759 18.4659 0.116961 17.864C-0.157529 17.269 0.0640475 16.5364 0.646099 16.2509C2.1343 15.5183 3.61919 14.7823 5.12393 14.0978C6.29465 13.5647 7.51497 13.1726 8.77829 12.9318C10.627 12.581 12.4393 12.6429 14.1788 13.4684C15.5479 14.1184 16.6393 15.1296 17.5686 16.3403C17.7769 16.6189 17.982 16.9113 18.2002 17.2139Z" fill="#6A2984"/>
<path d="M18.1999 28C17.1019 28 16.2189 27.0886 16.2189 25.9535C16.2189 24.8151 17.0986 23.8968 18.19 23.8933C19.2813 23.8899 20.1742 24.8116 20.1742 25.9432C20.1742 27.0817 19.2912 27.9966 18.1999 28Z" fill="#6A2984"/>
</svg>
