<svg width="20" height="16" viewBox="0 0 20 16" fill="none" xmlns="http://www.w3.org/2000/svg">
<path d="M6.70995 2.8638C7.68114 2.43653 8.77674 2.16677 9.99996 2.16677C12.4626 2.16677 14.424 3.26282 15.8836 4.55363C17.3465 5.84736 18.2716 7.30876 18.6395 7.95374C18.6493 7.97089 18.6524 7.98614 18.6524 7.99943C18.6523 8.01289 18.6489 8.02977 18.6379 8.04913C18.4164 8.43721 17.9901 9.12625 17.3628 9.89735C17.1449 10.1651 17.1854 10.5588 17.4532 10.7766C17.7209 10.9944 18.1146 10.954 18.3324 10.6862C19.013 9.84966 19.4769 9.10076 19.7235 8.66878C19.9593 8.25558 19.964 7.75305 19.7253 7.33442C19.3213 6.62612 18.3164 5.03636 16.7117 3.61726C15.1037 2.19523 12.8599 0.916771 9.99996 0.916771C8.58719 0.916771 7.32084 1.22942 6.20658 1.71963C5.89063 1.85863 5.74718 2.22744 5.88619 2.5434C6.02519 2.85935 6.394 3.0028 6.70995 2.8638Z" fill="#4B84F1"/>
<path fill-rule="evenodd" clip-rule="evenodd" d="M15.9717 12.9894C14.4399 14.149 12.4442 15.0834 9.99996 15.0834C7.14004 15.0834 4.8962 13.805 3.28821 12.3829C1.68352 10.9638 0.67862 9.37403 0.274611 8.66573C0.0361457 8.24765 0.0398849 7.74576 0.276025 7.332C0.658936 6.66107 1.58042 5.20037 3.03988 3.84258L1.09735 2.4686C0.815543 2.26927 0.74868 1.87923 0.948008 1.59742C1.14734 1.31561 1.53737 1.24875 1.81918 1.44808L18.9025 13.5314C19.1843 13.7307 19.2512 14.1208 19.0519 14.4026C18.8525 14.6844 18.4625 14.7513 18.1807 14.5519L15.9717 12.9894ZM4.08475 4.58164C2.64259 5.86611 1.72849 7.30884 1.36166 7.95159C1.35063 7.97091 1.34737 7.9875 1.34734 8.00059C1.3473 8.01354 1.35038 8.02884 1.3604 8.0464C1.7283 8.6914 2.65336 10.1528 4.11629 11.4466C5.5759 12.7374 7.53734 13.8334 9.99996 13.8334C11.9446 13.8334 13.5755 13.1504 14.8947 12.2277L11.9649 10.1554C11.4465 10.6283 10.7569 10.9167 9.99988 10.9167C8.38905 10.9167 7.08322 9.61083 7.08322 8C7.08322 7.59727 7.16484 7.2136 7.31245 6.86464L4.08475 4.58164Z" fill="#4B84F1"/>
</svg>
