<svg width="43" height="41" viewBox="0 0 43 41" fill="none" xmlns="http://www.w3.org/2000/svg">
<path d="M21.8321 0.378097L27.8621 12.5309C27.9611 12.7311 28.1527 12.8693 28.3746 12.9013L41.8583 14.8502C42.4171 14.9308 42.6402 15.6139 42.2358 16.006L32.4792 25.4654C32.3185 25.6208 32.2452 25.8454 32.2831 26.0647L34.5866 39.422C34.6817 39.9753 34.0978 40.3974 33.5982 40.1358L21.5382 33.8291C21.3395 33.7255 21.1028 33.7255 20.9041 33.8291L8.84417 40.1358C8.34451 40.3968 7.76061 39.9753 7.85579 39.422L10.1592 26.0647C10.1972 25.8447 10.1239 25.6208 9.9631 25.4654L0.206575 16.0054C-0.19791 15.6133 0.0252316 14.9308 0.584052 14.8496L14.0678 12.9007C14.2896 12.8687 14.4812 12.7299 14.5803 12.5303L20.6103 0.377458C20.8604 -0.125926 21.5819 -0.125926 21.8321 0.378097Z" fill="#F3CC30"/>
<path d="M21.2212 3.18515L15.8478 13.5381C15.5662 14.0811 15.0247 14.4438 14.4132 14.4988L2.74609 15.558L15.0729 16.1311C15.8555 16.1676 16.5726 15.6955 16.8439 14.9645L21.2212 3.18515Z" fill="#F7DB5E"/>
<path d="M8.12093 37.885L7.85599 39.422C7.76081 39.9753 8.34471 40.3974 8.84437 40.1358L20.9043 33.8291C21.103 33.7255 21.3397 33.7255 21.5384 33.8291L33.5984 40.1358C34.098 40.3974 34.6819 39.9753 34.5868 39.422L32.2833 26.0648C32.2454 25.8447 32.3187 25.6209 32.4794 25.4654L42.236 16.006C42.6405 15.6139 42.4173 14.9315 41.8585 14.8502L37.3423 14.1972C30.0377 27.2365 18.8523 34.101 8.12093 37.885Z" fill="#EDBD31"/>
</svg>
