<svg width="43" height="41" viewBox="0 0 43 41" fill="none" xmlns="http://www.w3.org/2000/svg">
<path d="M22.2217 0.378097L28.2517 12.5309C28.3507 12.7311 28.5424 12.8693 28.7642 12.9013L42.2479 14.8502C42.8068 14.9308 43.0299 15.6139 42.6254 16.006L32.8689 25.4654C32.7081 25.6208 32.6348 25.8454 32.6728 26.0647L34.9762 39.422C35.0714 39.9753 34.4875 40.3974 33.9878 40.1358L21.9278 33.8291C21.7291 33.7255 21.4925 33.7255 21.2938 33.8291L9.23382 40.1358C8.73416 40.3968 8.15026 39.9753 8.24544 39.422L10.5489 26.0647C10.5868 25.8447 10.5135 25.6208 10.3527 25.4654L0.596224 16.0054C0.191738 15.6133 0.41488 14.9308 0.9737 14.8496L14.4574 12.9007C14.6793 12.8687 14.8709 12.7299 14.9699 12.5303L20.9999 0.377458C21.2501 -0.125926 21.9716 -0.125926 22.2217 0.378097Z" fill="#DADADA"/>
</svg>
