<svg width="24" height="24" viewBox="0 0 24 24" fill="none" xmlns="http://www.w3.org/2000/svg">
<path d="M8.49999 13.4C9.05694 13.4 9.59109 13.6212 9.98491 14.0151C10.3787 14.4089 10.6 14.943 10.6 15.5V21.1C10.6 21.6569 10.3787 22.1911 9.98491 22.5849C9.59109 22.9787 9.05694 23.2 8.49999 23.2H2.89999C2.34303 23.2 1.80889 22.9787 1.41506 22.5849C1.02124 22.1911 0.799988 21.6569 0.799988 21.1V15.5C0.799988 14.943 1.02124 14.4089 1.41506 14.0151C1.80889 13.6212 2.34303 13.4 2.89999 13.4H8.49999ZM21.1 13.4C21.6569 13.4 22.1911 13.6212 22.5849 14.0151C22.9787 14.4089 23.2 14.943 23.2 15.5V21.1C23.2 21.6569 22.9787 22.1911 22.5849 22.5849C22.1911 22.9787 21.6569 23.2 21.1 23.2H15.5C14.943 23.2 14.4089 22.9787 14.0151 22.5849C13.6212 22.1911 13.4 21.6569 13.4 21.1V15.5C13.4 14.943 13.6212 14.4089 14.0151 14.0151C14.4089 13.6212 14.943 13.4 15.5 13.4H21.1ZM8.49999 14.8H2.89999C2.71434 14.8 2.53629 14.8737 2.40501 15.005C2.27374 15.1363 2.19999 15.3143 2.19999 15.5V21.1C2.19999 21.2856 2.27374 21.4637 2.40501 21.595C2.53629 21.7262 2.71434 21.8 2.89999 21.8H8.49999C8.68564 21.8 8.86369 21.7262 8.99496 21.595C9.12624 21.4637 9.19999 21.2856 9.19999 21.1V15.5C9.19999 15.3143 9.12624 15.1363 8.99496 15.005C8.86369 14.8737 8.68564 14.8 8.49999 14.8ZM21.1 14.8H15.5C15.3143 14.8 15.1363 14.8737 15.005 15.005C14.8737 15.1363 14.8 15.3143 14.8 15.5V21.1C14.8 21.2856 14.8737 21.4637 15.005 21.595C15.1363 21.7262 15.3143 21.8 15.5 21.8H21.1C21.2856 21.8 21.4637 21.7262 21.595 21.595C21.7262 21.4637 21.8 21.2856 21.8 21.1V15.5C21.8 15.3143 21.7262 15.1363 21.595 15.005C21.4637 14.8737 21.2856 14.8 21.1 14.8ZM8.49999 0.799988C9.05694 0.799988 9.59109 1.02124 9.98491 1.41506C10.3787 1.80889 10.6 2.34303 10.6 2.89999V8.49999C10.6 9.05694 10.3787 9.59109 9.98491 9.98491C9.59109 10.3787 9.05694 10.6 8.49999 10.6H2.89999C2.34303 10.6 1.80889 10.3787 1.41506 9.98491C1.02124 9.59109 0.799988 9.05694 0.799988 8.49999V2.89999C0.799988 2.34303 1.02124 1.80889 1.41506 1.41506C1.80889 1.02124 2.34303 0.799988 2.89999 0.799988H8.49999ZM21.1 0.799988C21.6569 0.799988 22.1911 1.02124 22.5849 1.41506C22.9787 1.80889 23.2 2.34303 23.2 2.89999V8.49999C23.2 9.05694 22.9787 9.59109 22.5849 9.98491C22.1911 10.3787 21.6569 10.6 21.1 10.6H15.5C14.943 10.6 14.4089 10.3787 14.0151 9.98491C13.6212 9.59109 13.4 9.05694 13.4 8.49999V2.89999C13.4 2.34303 13.6212 1.80889 14.0151 1.41506C14.4089 1.02124 14.943 0.799988 15.5 0.799988H21.1ZM8.49999 2.19999H2.89999C2.71434 2.19999 2.53629 2.27374 2.40501 2.40501C2.27374 2.53629 2.19999 2.71434 2.19999 2.89999V8.49999C2.19999 8.68564 2.27374 8.86369 2.40501 8.99496C2.53629 9.12624 2.71434 9.19999 2.89999 9.19999H8.49999C8.68564 9.19999 8.86369 9.12624 8.99496 8.99496C9.12624 8.86369 9.19999 8.68564 9.19999 8.49999V2.89999C9.19999 2.71434 9.12624 2.53629 8.99496 2.40501C8.86369 2.27374 8.68564 2.19999 8.49999 2.19999ZM21.1 2.19999H15.5C15.3143 2.19999 15.1363 2.27374 15.005 2.40501C14.8737 2.53629 14.8 2.71434 14.8 2.89999V8.49999C14.8 8.68564 14.8737 8.86369 15.005 8.99496C15.1363 9.12624 15.3143 9.19999 15.5 9.19999H21.1C21.2856 9.19999 21.4637 9.12624 21.595 8.99496C21.7262 8.86369 21.8 8.68564 21.8 8.49999V2.89999C21.8 2.71434 21.7262 2.53629 21.595 2.40501C21.4637 2.27374 21.2856 2.19999 21.1 2.19999Z" fill="#9A9A9A"/>
</svg>
