<svg width="24" height="24" viewBox="0 0 24 24" fill="none" xmlns="http://www.w3.org/2000/svg">
<path d="M8.5 13.4C9.05695 13.4 9.5911 13.6212 9.98492 14.0151C10.3787 14.4089 10.6 14.943 10.6 15.5V21.1C10.6 21.6569 10.3787 22.1911 9.98492 22.5849C9.5911 22.9787 9.05695 23.2 8.5 23.2H2.9C2.34304 23.2 1.8089 22.9787 1.41508 22.5849C1.02125 22.1911 0.799999 21.6569 0.799999 21.1V15.5C0.799999 14.943 1.02125 14.4089 1.41508 14.0151C1.8089 13.6212 2.34304 13.4 2.9 13.4H8.5ZM21.1 13.4C21.657 13.4 22.1911 13.6212 22.5849 14.0151C22.9787 14.4089 23.2 14.943 23.2 15.5V21.1C23.2 21.6569 22.9787 22.1911 22.5849 22.5849C22.1911 22.9787 21.657 23.2 21.1 23.2H15.5C14.943 23.2 14.4089 22.9787 14.0151 22.5849C13.6212 22.1911 13.4 21.6569 13.4 21.1V15.5C13.4 14.943 13.6212 14.4089 14.0151 14.0151C14.4089 13.6212 14.943 13.4 15.5 13.4H21.1ZM8.5 0.799988C9.05695 0.799988 9.5911 1.02124 9.98492 1.41506C10.3787 1.80889 10.6 2.34303 10.6 2.89999V8.49999C10.6 9.05694 10.3787 9.59109 9.98492 9.98491C9.5911 10.3787 9.05695 10.6 8.5 10.6H2.9C2.34304 10.6 1.8089 10.3787 1.41508 9.98491C1.02125 9.59109 0.799999 9.05694 0.799999 8.49999V2.89999C0.799999 2.34303 1.02125 1.80889 1.41508 1.41506C1.8089 1.02124 2.34304 0.799988 2.9 0.799988H8.5ZM21.1 0.799988C21.657 0.799988 22.1911 1.02124 22.5849 1.41506C22.9787 1.80889 23.2 2.34303 23.2 2.89999V8.49999C23.2 9.05694 22.9787 9.59109 22.5849 9.98491C22.1911 10.3787 21.657 10.6 21.1 10.6H15.5C14.943 10.6 14.4089 10.3787 14.0151 9.98491C13.6212 9.59109 13.4 9.05694 13.4 8.49999V2.89999C13.4 2.34303 13.6212 1.80889 14.0151 1.41506C14.4089 1.02124 14.943 0.799988 15.5 0.799988H21.1Z" fill="#3D3D3D"/>
</svg>
