<svg width="22" height="24" viewBox="0 0 22 24" fill="none" xmlns="http://www.w3.org/2000/svg">
<path d="M9.79775 1.20851C10.1227 0.901324 10.5529 0.730164 11 0.730164C11.4471 0.730164 11.8773 0.901324 12.2023 1.20851L20.6793 9.22176C21.2043 9.71701 21.5 10.4083 21.5 11.1293V20.8768C21.5 21.573 21.2234 22.2406 20.7312 22.7329C20.2389 23.2252 19.5712 23.5018 18.875 23.5018H15.375C15.0301 23.5018 14.6886 23.4338 14.3701 23.3018C14.0515 23.1698 13.762 22.9762 13.5182 22.7323C13.2744 22.4884 13.0811 22.1988 12.9493 21.8801C12.8175 21.5614 12.7498 21.2199 12.75 20.875V16.5C12.75 16.2679 12.6578 16.0454 12.4937 15.8813C12.3296 15.7172 12.1071 15.625 11.875 15.625H10.125C9.89294 15.625 9.67038 15.7172 9.50628 15.8813C9.34219 16.0454 9.25 16.2679 9.25 16.5V20.875C9.25 21.5712 8.97344 22.2389 8.48116 22.7312C7.98887 23.2235 7.32119 23.5 6.625 23.5H3.125C2.42881 23.5 1.76113 23.2235 1.26884 22.7312C0.776562 22.2389 0.5 21.5712 0.5 20.875V11.1275C0.5 10.4065 0.7975 9.71526 1.3225 9.22001L9.79775 1.20501V1.20851Z" fill="#3D3D3D"/>
</svg>
