<svg width="28" height="28" viewBox="0 0 28 28" fill="none" xmlns="http://www.w3.org/2000/svg">
<path d="M13.9999 12.8333C12.7622 12.8333 11.5753 12.3417 10.7001 11.4665C9.82492 10.5913 9.33325 9.40434 9.33325 8.16667C9.33325 6.92899 9.82492 5.742 10.7001 4.86683C11.5753 3.99167 12.7622 3.5 13.9999 3.5C15.2376 3.5 16.4246 3.99167 17.2998 4.86683C18.1749 5.742 18.6666 6.92899 18.6666 8.16667C18.6666 9.40434 18.1749 10.5913 17.2998 11.4665C16.4246 12.3417 15.2376 12.8333 13.9999 12.8333Z" stroke="#9A9A9A" stroke-width="2" stroke-linecap="round"/>
<path d="M4.66663 24.5V23.3333C4.66663 21.4768 5.40412 19.6964 6.71688 18.3836C8.02963 17.0708 9.81011 16.3333 11.6666 16.3333H16.3333C18.1898 16.3333 19.9703 17.0708 21.283 18.3836C22.5958 19.6964 23.3333 21.4768 23.3333 23.3333V24.5" stroke="#9A9A9A" stroke-width="2" stroke-linecap="round"/>
</svg>
