<svg width="28" height="28" viewBox="0 0 28 28" fill="none" xmlns="http://www.w3.org/2000/svg">
<path d="M14.0001 12.8333C12.7624 12.8333 11.5754 12.3417 10.7003 11.4665C9.82508 10.5913 9.33342 9.40434 9.33342 8.16667C9.33342 6.92899 9.82508 5.742 10.7003 4.86683C11.5754 3.99167 12.7624 3.5 14.0001 3.5C15.2378 3.5 16.4247 3.99167 17.2999 4.86683C18.1751 5.742 18.6668 6.92899 18.6668 8.16667C18.6668 9.40434 18.1751 10.5913 17.2999 11.4665C16.4247 12.3417 15.2378 12.8333 14.0001 12.8333Z" fill="#3D3D3D" stroke="#3D3D3D" stroke-width="2" stroke-linecap="round"/>
<path d="M4.66675 24.5V23.3333C4.66675 21.4768 5.40425 19.6963 6.717 18.3836C8.02976 17.0708 9.81023 16.3333 11.6667 16.3333H16.3334C18.1899 16.3333 19.9704 17.0708 21.2832 18.3836C22.5959 19.6963 23.3334 21.4768 23.3334 23.3333V24.5" fill="#3D3D3D"/>
<path d="M4.66675 24.5V23.3333C4.66675 21.4768 5.40425 19.6963 6.717 18.3836C8.02975 17.0708 9.81023 16.3333 11.6667 16.3333H16.3334C18.1899 16.3333 19.9704 17.0708 21.2832 18.3836C22.5959 19.6963 23.3334 21.4768 23.3334 23.3333V24.5H4.66675Z" stroke="#3D3D3D" stroke-width="2" stroke-linecap="round"/>
</svg>
