<svg width="24" height="22" viewBox="0 0 24 22" fill="none" xmlns="http://www.w3.org/2000/svg">
<path d="M21.52 2.83336C20.2833 1.59344 18.6439 0.83666 16.8981 0.699729C15.1522 0.562797 13.4149 1.05474 12 2.0867C10.5156 0.982607 8.66799 0.48196 6.82924 0.685574C4.99049 0.889188 3.29718 1.78194 2.0903 3.18405C0.88342 4.58615 0.252622 6.39347 0.324931 8.24205C0.397239 10.0906 1.16728 11.8431 2.48 13.1467L9.725 20.4034C10.3317 21.0004 11.1488 21.3351 12 21.3351C12.8512 21.3351 13.6683 21.0004 14.275 20.4034L21.52 13.1467C22.8822 11.7762 23.6467 9.92235 23.6467 7.99003C23.6467 6.05771 22.8822 4.20389 21.52 2.83336Z" fill="#3D3D3D"/>
</svg>
