<svg width="24" height="22" viewBox="0 0 24 22" fill="none" xmlns="http://www.w3.org/2000/svg">
<path d="M21.52 2.83336C20.2833 1.59344 18.6439 0.83666 16.8981 0.699729C15.1522 0.562797 13.4149 1.05474 12 2.0867C10.5156 0.982607 8.66799 0.48196 6.82924 0.685574C4.99049 0.889188 3.29718 1.78194 2.0903 3.18405C0.88342 4.58615 0.252622 6.39347 0.324931 8.24205C0.397239 10.0906 1.16728 11.8431 2.48 13.1467L9.725 20.4034C10.3317 21.0004 11.1488 21.3351 12 21.3351C12.8512 21.3351 13.6683 21.0004 14.275 20.4034L21.52 13.1467C22.8822 11.7762 23.6467 9.92235 23.6467 7.99003C23.6467 6.05771 22.8822 4.20389 21.52 2.83336ZM19.875 11.5367L12.63 18.7817C12.5476 18.8649 12.4494 18.931 12.3413 18.9761C12.2332 19.0212 12.1172 19.0444 12 19.0444C11.8828 19.0444 11.7668 19.0212 11.6587 18.9761C11.5506 18.931 11.4524 18.8649 11.37 18.7817L4.125 11.5017C3.21005 10.5664 2.69771 9.31007 2.69771 8.0017C2.69771 6.69332 3.21005 5.43696 4.125 4.5017C5.05734 3.58118 6.3148 3.06503 7.625 3.06503C8.93519 3.06503 10.1926 3.58118 11.125 4.5017C11.2335 4.61105 11.3625 4.69784 11.5047 4.75707C11.6468 4.8163 11.7993 4.8468 11.9533 4.8468C12.1073 4.8468 12.2598 4.8163 12.402 4.75707C12.5442 4.69784 12.6732 4.61105 12.7817 4.5017C13.714 3.58118 14.9715 3.06503 16.2817 3.06503C17.5919 3.06503 18.8493 3.58118 19.7817 4.5017C20.7092 5.42471 21.2383 6.67425 21.2558 7.98266C21.2732 9.29108 20.7776 10.5543 19.875 11.5017V11.5367Z" fill="#989A9C"/>
</svg>
